<?xml version="1.0" encoding="UTF-8"?>
<svg id="Layer_1" xmlns="http://www.w3.org/2000/svg" version="1.1" viewBox="0 0 902.98456 257.20508">
  <!-- Generator: Adobe Illustrator 29.6.0, SVG Export Plug-In . SVG Version: 2.1.1 Build 207)  -->
  <path d="M200.9806,137.39683c0-12.32238,3.01913-23.57283,9.06232-33.7415,6.03825-10.16867,14.14665-18.27706,24.32024-24.32024,10.16867-6.03826,21.4142-9.06231,33.73659-9.06231h40.56158c12.32239,0,23.5679,3.02405,33.74152,9.06231,10.16867,6.04318,18.27216,14.15156,24.31531,24.32024s9.06723,21.41912,9.06723,33.7415v51.68419c0,12.3273-3.02405,23.57283-9.06723,33.7415-6.04318,10.17358-14.14664,18.27705-24.31531,24.32024-10.17358,6.04318-21.41913,9.06232-33.74152,9.06232h-40.56158c-12.32239,0-23.5679-3.01913-33.73657-9.06232-10.17358-6.04318-18.28197-14.14665-24.32024-24.32024-6.04318-10.16867-9.06232-21.4142-9.06232-33.7415v-51.68419h-.00002ZM238.84759,188.72207c0,8.13789,2.87161,15.11041,8.61485,20.91264s12.62234,8.70335,20.6373,8.70335h40.56158c8.13788,0,15.04648-2.90112,20.73071-8.70335,5.67932-5.80225,8.52142-12.77477,8.52142-20.91264v-50.96628c0-8.13789-2.8421-15.10549-8.52142-20.90773-5.68423-5.80224-12.59283-8.70336-20.73071-8.70336h-40.56158c-8.01495,0-14.89404,2.90112-20.63728,8.70336s-8.61485,12.76984-8.61485,20.90773v50.96628h-.00002Z" fill="#9946ff"/>
  <path d="M405.99634,107.96276c0-10.40961,3.73703-19.29491,11.21603-26.65097,7.47406-7.36098,16.4823-11.03901,27.00992-11.03901h65.50629c12.32239,0,23.56793,3.02405,33.74152,9.06231,10.16864,6.04318,18.27704,14.15156,24.31531,24.32024,6.04315,10.16867,9.06726,21.41912,9.06726,33.7415v118.80824h-37.87189v-118.27228c0-8.37392-2.8421-15.49395-8.52142-21.35519-5.6842-5.86125-12.59283-8.79187-20.73071-8.79187h-65.86526v148.41934h-37.86697V107.96276h-.00006Z" fill="#9946ff"/>
  <path d="M602.02845,122.49786c0-9.69171,2.42413-18.48358,7.26758-26.38052,4.84833-7.89695,11.3045-14.17615,19.38342-18.84253,8.07397-4.66638,17.01825-7.00202,26.828-7.00202h109.12146v37.87191h-109.12146c-4.30249,0-7.98547,1.40631-11.03412,4.214-3.05353,2.81261-4.57788,6.19069-4.57788,10.13917v4.48936c0,4.06649,1.52429,7.53799,4.57788,10.40961,3.04865,2.87161,6.73157,4.30743,11.03412,4.30743h67.84192c9.80969,0,18.75403,2.36514,26.83289,7.08562,8.07397,4.7303,14.50562,11.03902,19.28998,18.93594s7.17902,16.68881,7.17902,26.38052v9.69171c0,9.5737-2.39465,18.34097-7.17902,26.29201-4.78436,7.96088-11.216,14.29909-19.28998,19.02446-8.07886,4.7303-17.02319,7.09052-26.83289,7.09052h-112.888v-37.86699h112.888c4.30743,0,7.98547-1.43581,11.039-4.30743,3.04865-2.87161,4.57294-6.34312,4.57294-10.40961v-9.33276c0-4.18941-1.52429-7.71992-4.57294-10.59155-3.05353-2.8667-6.73157-4.30251-11.039-4.30251h-67.84192c-9.80969,0-18.75403-2.36514-26.828-7.09053-8.07886-4.72539-14.5351-11.06851-19.38342-19.02446-4.84338-7.95595-7.26758-16.71832-7.26758-26.29201v-4.48936.00002Z" fill="#9946ff"/>
  <path d="M38.68997,256.20507c-10.40961,0-19.29491-3.73705-26.65097-11.21602-7.36098-7.47408-11.03901-16.48228-11.03901-27.00992v-80.58229c0-12.32238,3.02405-23.56791,9.06231-33.7415,6.04318-10.16867,14.15156-18.27706,24.32024-24.31532,10.16867-6.04318,21.41912-9.06723,33.7415-9.06723h107.68071v37.87191h-107.14475c-8.37391,0-15.49395,2.84211-21.35519,8.52143-5.86125,5.68423-8.79187,12.59283-8.79187,20.73071v80.94125h137.29181v37.86697H38.68997Z" fill="#9946ff"/>
  <path d="M844.72925,108.14472h57.25531v-37.87191h-57.25531V.99997h-37.867v216.97919c0,10.52762,3.67804,19.53584,11.039,27.00992,7.35608,7.47899,16.24133,11.21602,26.651,11.21602h57.43231v-37.86699h-57.27533l.01996-110.19339h.00006Z" fill="#9946ff"/>
</svg>