<?xml version="1.0" encoding="UTF-8"?>
<svg id="Layer_1" xmlns="http://www.w3.org/2000/svg" version="1.1" viewBox="0 0 150 150">
  <!-- Generator: Adobe Illustrator 29.6.0, SVG Export Plug-In . SVG Version: 2.1.1 Build 207)  -->
  <path d="M5.8628,18.2876v106.5107c0,3.8027,3.1113,6.9141,6.9131,6.9141h124.4473c3.8037,0,6.914-3.1114,6.914-6.9141V18.2876H5.8628ZM19.8599,35.935h9.9111v9.9102h-9.9111v-9.9102ZM137.2232,124.7983H12.7759V53.5835h124.4473v71.2148Z" fill="#fff"/>
  <g>
    <path d="M105.4214,59.0561c-2.416-2.5908-6.5088-2.7334-9.1016-.3213l-16.1982,15.0938c-.5889-.1416-1.1914-.252-1.8145-.3028-6.4882-.5244-12.1943,4.3301-12.7187,10.8184-.1328,1.6377.0781,3.2227.5713,4.6885l6.9951-6.5176c.6826-.6367,1.7656-.5996,2.4043.0859l4.6094,4.9463c.6367.6827.5996,1.7637-.0869,2.4024l-6.8614,6.3935c1.0039.375,2.0684.6309,3.1866.7198,6.4882.5244,12.1943-4.3291,12.7207-10.8184.0839-1.0439.0156-2.0654-.1641-3.0508l16.1348-15.0361c2.5918-2.416,2.7353-6.5127.3232-9.1016Z" fill="#fff"/>
    <path d="M74.0454,103.0659c-8.8271-.7119-15.4277-8.4717-14.7148-17.2988.4941-6.1075,4.3633-11.1455,9.626-13.4366l-10.9122-12.8261-7.2431,6.165,4.4931,5.2803c-2.1591,2.6816-3.788,5.8222-4.7334,9.2666l-6.9218-.5596-.7774,9.6289,6.9219.5576c.3809,3.5518,1.4854,6.9102,3.1875,9.9043l-5.2812,4.4932,6.2558,7.3545,5.2803-4.4922c2.6855,2.1611,5.8223,3.7871,9.2666,4.7344l-.5586,6.9218,9.626.7754.5586-6.9209c3.5537-.3818,6.9111-1.4834,9.9082-3.1875l4.4922,5.2803,7.2431-6.1601-10.9092-12.8272c-3.1064,4.8272-8.7011,7.8399-14.8076,7.3467Z" fill="#fff"/>
  </g>
</svg>