<?xml version="1.0" encoding="UTF-8"?>
<svg id="Layer_1" xmlns="http://www.w3.org/2000/svg" version="1.1" viewBox="0 0 150 150">
  <!-- Generator: Adobe Illustrator 29.6.0, SVG Export Plug-In . SVG Version: 2.1.1 Build 207)  -->
  <path d="M144.76084,65.15475l-26.8535-26.6435c-.4179-.4898-.8261-.9795-1.2636-1.4566-10.6329-11.646-25.7813-18.3247-41.5547-18.3247-14.0723,0-27.543,5.23-37.9414,14.7207-1.2911,1.1817-2.5196,2.4199-3.6836,3.6968l-28.2266,28.0073c-5.293,5.2529-5.3301,13.8032-.0781,19.0987l27.7715,27.9873c.2089.2358.4043.477.6152.7089,10.6367,11.6426,25.7812,18.3204,41.5527,18.3204h.0039c14.0723,0,27.5469-5.2261,37.9395-14.7188,1.9902-1.8203,3.8125-3.7563,5.4805-5.7803l26.3125-26.5175c5.2558-5.2955,5.2246-13.8458-.0743-19.0987ZM97.86244,99.93015c-6.2344,5.6973-14.3203,8.8335-22.7598,8.8335h-.0039c-9.4668-.001-18.5507-4.0063-24.9316-10.9932-6.084-6.6591-9.207-15.2861-8.7969-24.2959.4043-9.0117,4.2969-17.3217,10.9551-23.4028,6.2383-5.6968,14.3223-8.8325,22.7637-8.8325,9.4648,0,18.5566,4.0063,24.9375,10.9922,12.5566,13.747,11.584,35.1435-2.1641,47.6987Z" fill="#fff"/>
  <path d="M75.00304,52.84035c-12.2441,0-22.1621,9.9204-22.1621,22.1596,0,12.2373,9.918,22.1607,22.1621,22.1607s22.1582-9.9234,22.1582-22.1607c0-12.2392-9.914-22.1596-22.1582-22.1596ZM69.69444,79.46875c-5.1601,0-9.3437-4.1826-9.3437-9.3433,0-5.1616,4.1836-9.3423,9.3437-9.3423,5.1621,0,9.3457,4.1807,9.3457,9.3423,0,5.1607-4.1836,9.3433-9.3457,9.3433ZM85.13004,88.20065c-2.4121,0-4.3672-1.9541-4.3672-4.3662,0-2.4116,1.9551-4.3657,4.3672-4.3657s4.3652,1.9541,4.3652,4.3657c0,2.4121-1.9531,4.3662-4.3652,4.3662Z" fill="#fff"/>
</svg>