<?xml version="1.0" encoding="UTF-8"?>
<svg id="Layer_1" xmlns="http://www.w3.org/2000/svg" version="1.1" viewBox="0 0 150 150">
  <!-- Generator: Adobe Illustrator 29.6.0, SVG Export Plug-In . SVG Version: 2.1.1 Build 207)  -->
  <path d="M5.9849,18.3872v106.3242c0,3.7949,3.1054,6.9014,6.9013,6.9014h124.2276c3.7959,0,6.9013-3.1065,6.9013-6.9014V18.3872H5.9849ZM19.9575,36.0054h9.8897v9.8925h-9.8897v-9.8925ZM137.1138,124.7114H12.8862V53.6196h124.2276v71.0918Z" fill="#fff"/>
  <polygon points="124.9058 89.0835 103.6362 67.812 91.3667 67.9438 112.4517 89.1372 91.3667 110.2251 103.6362 110.3569 124.9058 89.0835 124.814 89.0835 124.9058 89.0835" fill="#fff"/>
  <polygon points="28.1235 89.0835 49.394 110.3569 61.6665 110.2251 40.5806 89.0317 61.6665 67.9438 49.394 67.812 28.1235 89.0835 28.2153 89.0835 28.1235 89.0835" fill="#fff"/>
  <rect x="54.20213" y="87.59528" width="44.62703" height="2.58679" transform="translate(-32.8265 131.31669) rotate(-70.48577)" fill="#fff"/>
</svg>