<?xml version="1.0" encoding="UTF-8"?>
<svg id="Layer_1" xmlns="http://www.w3.org/2000/svg" version="1.1" viewBox="0 0 150 150">
  <!-- Generator: Adobe Illustrator 29.6.0, SVG Export Plug-In . SVG Version: 2.1.1 Build 207)  -->
  <path d="M129.4063,61.50652h-38.4854l-9.2744,10.7109c-1.4971,1.7246-3.669,2.7148-5.9649,2.7148-1.8935,0-3.7236-.6816-5.1503-1.917-1.585-1.374-2.544-3.29-2.6934-5.3935-.1533-2.1006.5205-4.1348,1.8955-5.7207l.3398-.3945H20.5928c-2.0615,0-3.751,1.6914-3.751,3.7558v7.501c0,2.0635,1.6895,3.7529,3.751,3.7529h.5996l9.2627,47.9766c.7051,3.6621,4.6533,6.6152,8.7812,6.6152h71.5293c4.126,0,8.0723-2.9531,8.7813-6.6152l9.2607-47.9766h.5987c2.0625,0,3.7519-1.6894,3.7519-3.7529v-7.501c0-2.0644-1.6894-3.7558-3.7519-3.7558ZM55.8887,117.29162c0,2.0625-1.5762,3.75-3.503,3.75-1.9248,0-3.5019-1.6875-3.5019-3.75v-31.7695c0-2.0645,1.5771-3.752,3.5019-3.752,1.9268,0,3.503,1.6875,3.503,3.752v31.7695ZM78.5029,117.29162c0,2.0625-1.5781,3.75-3.5029,3.75s-3.501-1.6875-3.501-3.75v-31.7695c0-2.0645,1.5762-3.752,3.501-3.752s3.5029,1.6875,3.5029,3.752v31.7695ZM101.1152,117.29162c0,2.0625-1.5761,3.75-3.5009,3.75-1.9278,0-3.5039-1.6875-3.5039-3.75v-31.7695c0-2.0645,1.5761-3.752,3.5039-3.752,1.9248,0,3.5009,1.6875,3.5009,3.752v31.7695Z" fill="#fff"/>
  <path d="M79.9434,70.74382c-2.0274,2.3388-5.5987,2.5947-7.9385.5703h0c-2.3399-2.0264-2.5977-5.5977-.5713-7.9375l36.8457-42.5479c2.0254-2.3398,5.5977-2.5957,7.9365-.5703h0c2.3428,2.0274,2.5996,5.5977.5713,7.9395l-36.8437,42.5459Z" fill="#fff"/>
</svg>