<?xml version="1.0" encoding="UTF-8"?>
<svg id="Layer_1" xmlns="http://www.w3.org/2000/svg" version="1.1" viewBox="0 0 150 150">
  <!-- Generator: Adobe Illustrator 29.6.0, SVG Export Plug-In . SVG Version: 2.1.1 Build 207)  -->
  <path d="M114.49406,58.64017c-6.914-.8106-13.5293-.2119-19.28218,1.4931v20.3145c0,7.7139-4.332,14.4375-10.68752,17.8662,5.5674,4.7783,13.3682,8.334,22.31152,9.7022,6.55468,7.3359,14.875,11.1708,22.65918,9.6171-4.2617-1.7871-8.3486-4.9218-11.874-9.0957,15.8281-.9062,28.4424-9.2881,29.8047-20.874,1.6093-13.7031-13.1328-26.6963-32.9317-29.0234ZM108.01456,89.51317c-2.4511,0-4.4365-1.9883-4.4365-4.4385,0-2.455,1.9854-4.4394,4.4365-4.4394s4.4385,1.9844,4.4385,4.4394c0,2.4502-1.9873,4.4385-4.4385,4.4385ZM118.65916,89.51317c-2.4512,0-4.4395-1.9883-4.4395-4.4385,0-2.455,1.9883-4.4394,4.4395-4.4394,2.4521,0,4.4375,1.9844,4.4375,4.4394,0,2.4502-1.9854,4.4385-4.4375,4.4385ZM129.30266,89.51317c-2.4512,0-4.4394-1.9883-4.4394-4.4385,0-2.455,1.9882-4.4394,4.4394-4.4394,2.45222,0,4.4385,1.9844,4.4385,4.4394,0,2.4502-1.98628,4.4385-4.4385,4.4385Z" fill="#fff"/>
  <g>
    <path d="M45.93456,52.92527c-5.7823,0-10.4844,4.7012-10.4844,10.4815,0,5.7832,4.7021,10.4844,10.4844,10.4844,5.7812,0,10.4834-4.7012,10.4834-10.4844,0-5.7803-4.7022-10.4815-10.4834-10.4815Z" fill="#fff"/>
    <path d="M74.92189,32.02487H16.94727c-7.9717,0-14.4932,6.5245-14.4932,14.4932v33.9297c0,7.9687,6.5215,14.4932,14.4932,14.4932h20.1835c-5.0498,5.9677-10.8984,10.4589-17.00188,13.0136,10.87788,2.1739,22.48048-3.0117,31.76168-13.0136h23.03132c7.97068,0,14.49208-6.5245,14.49208-14.4932v-33.9297c0-7.9687-6.5214-14.4932-14.49208-14.4932ZM66.94916,66.56007h-4.5332c-.4336,2.291-1.32708,4.4189-2.5937,6.2803l3.2011,3.1992-4.457,4.459-3.2022-3.2012c-1.8574,1.2637-3.98528,2.1592-6.27828,2.5938v4.5341h-6.30372v-4.5341c-2.291-.4346-4.4189-1.3301-6.27828-2.5938l-3.20122,3.2012-4.458-4.459,3.20122-3.1992c-1.26472-1.8614-2.15822-3.9893-2.59382-6.2803h-4.5341v-6.3047h4.5341c.4356-2.29,1.3291-4.4189,2.59382-6.2793l-3.20122-3.1992,4.458-4.458,3.20122,3.2002c1.85938-1.2647,3.98728-2.1592,6.27828-2.5938v-4.5322h6.30372v4.5322c2.293.4346,4.42088,1.3291,6.27828,2.5938l3.2022-3.2002,4.457,4.458-3.2011,3.1992c1.26662,1.8604,2.1601,3.9893,2.5937,6.2793h4.5332v6.3047Z" fill="#fff"/>
  </g>
</svg>