<?xml version="1.0" encoding="UTF-8"?>
<svg id="Layer_1" xmlns="http://www.w3.org/2000/svg" version="1.1" viewBox="0 0 20 20">
  <!-- Generator: Adobe Illustrator 29.6.1, SVG Export Plug-In . SVG Version: 2.1.1 Build 9)  -->
  <path d="M10,2c4.41121,0,8,3.58879,8,8s-3.58879,8-8,8S2,14.41121,2,10,5.58879,2,10,2M10,1C5.02943,1,1,5.02945,1,10s4.02943,9,9,9,9-4.02943,9-9S14.97056,1,10,1h0Z" fill="#ededf4"/>
  <path d="M9.4017,12.52594l-.0316-.41209c-.0948-.85514.19025-1.79024.98218-2.74018.71262-.83966,1.10858-1.45748,1.10858-2.17009,0-.80806-.50689-1.34655-1.50455-1.36268-.57009,0-1.20403.19025-1.6.49141l-.37985-.99831c.52237-.37985,1.42523-.63329,2.26489-.63329,1.82184,0,2.64538,1.12471,2.64538,2.32809,0,1.07763-.60169,1.85344-1.36203,2.75631-.69714.82418-.95058,1.52068-.90286,2.32874l.01548.41209h-1.23563ZM9.05346,14.74311c0-.58557.39597-.99766.95058-.99766.55397,0,.93446.41209.93446.99766,0,.55461-.36437.98218-.95058.98218-.55461,0-.93446-.42757-.93446-.98218Z" fill="#ededf4"/>
</svg>